STARTFONT 2.1
FONT -Monotype-Times New Roman-Regular-R-Normal--36-360-75-75-P-185-iso8859-7
SIZE 36 75 75
FONTBOUNDINGBOX 41 43 -3 -9

STARTPROPERTIES 24
FOUNDRY "Monotype"
FAMILY_NAME "Times New Roman"
WEIGHT_NAME "Regular"
SLANT "R"
SETWIDTH_NAME "Normal"
ADD_STYLE_NAME ""
PIXEL_SIZE 36
POINT_SIZE 360
RESOLUTION_X 75
RESOLUTION_Y 75
SPACING "P"
AVERAGE_WIDTH 185
CHARSET_REGISTRY "iso8859"
CHARSET_ENCODING "7"
FACE_NAME "Times New Roman ISO Latin Greek"
_DEC_DEVICE_FONTNAMES "PS=timesnewroman-latgreek"
COPYRIGHT "Copyright (c) 1993 Monotype Typography Ltd."
CAP_HEIGHT 29
X_HEIGHT 19
WEIGHT 10
QUAD_WIDTH 23
DEFAULT_CHAR 160
FONT_DESCENT 9
FONT_ASCENT 34
ENDPROPERTIES

CHARS 185

STARTCHAR space
ENCODING 32
SWIDTH 250 0
DWIDTH 10 0
BBX 0 0 0 0
BITMAP
ENDCHAR

STARTCHAR exclam
ENCODING 33
SWIDTH 271 0
DWIDTH 10 0
BBX 4 27 3 0
BITMAP
60
F0
F0
F0
F0
F0
F0
F0
F0
60
60
60
60
60
60
60
60
60
20
20
00
00
00
F0
F0
F0
70
ENDCHAR

STARTCHAR quotedbl
ENCODING 34
SWIDTH 406 0
DWIDTH 15 0
BBX 11 11 2 16
BITMAP
60C0
F1E0
F1E0
F1E0
F1E0
61C0
60C0
60C0
60C0
60C0
6080
ENDCHAR

STARTCHAR numbersign
ENCODING 35
SWIDTH 667 0
DWIDTH 25 0
BBX 22 27 2 -3
BITMAP
01C070
018060
018060
018060
0380E0
0300E0
0300C0
0300C0
FFFFFC
FFFFFC
0601C0
060180
060180
0E0180
0E0380
0C0300
0C0300
FFFFFC
FFFFFC
1C0700
180600
180600
180600
380600
300E00
300C00
300C00
ENDCHAR

STARTCHAR dollar
ENCODING 36
SWIDTH 500 0
DWIDTH 19 0
BBX 16 31 2 -3
BITMAP
0100
0300
1FF8
391E
710E
6106
E102
E102
E102
F100
7900
7F00
3F00
1FC0
07E0
03F8
01FC
013E
011E
010F
0107
8107
8107
8107
C10E
E10C
F138
3FE0
0100
0100
0100
ENDCHAR

STARTCHAR percent
ENCODING 37
SWIDTH 823 0
DWIDTH 31 0
BBX 30 28 1 -1
BITMAP
1E000180
21000300
61800600
60800400
C0C00C00
C0C01800
C0C01000
C0C03000
C0C06000
C0C04000
6080C000
61818000
31010000
0E0301E0
00060210
00040618
000C060C
00180C0C
00100C0C
00300C0C
00600C0C
00600C0C
00C00C0C
0180060C
01800618
03000310
060000E0
06000000
ENDCHAR

STARTCHAR ampersand
ENCODING 38
SWIDTH 771 0
DWIDTH 29 0
BBX 28 27 1 0
BITMAP
003F0000
00E38000
01C1C000
01C0C000
03C0C000
03C0C000
03C1C000
03C18000
01E30000
01EE0000
01F83FC0
00F00F00
03F80E00
07780C00
0C7C0C00
383E1800
383E1800
701F3000
F01FB000
F00FE000
F007C000
F003E010
F803F010
FC06FC20
7E3C7FE0
3FF03FC0
1FC00F00
ENDCHAR

STARTCHAR quoteright
ENCODING 39
SWIDTH 271 0
DWIDTH 10 0
BBX 5 10 3 17
BITMAP
F0
F8
F8
F8
08
08
10
30
60
80
ENDCHAR

STARTCHAR parenleft
ENCODING 40
SWIDTH 333 0
DWIDTH 13 0
BBX 11 35 1 -8
BITMAP
0060
0080
0100
0600
0400
0C00
1800
1800
3800
3800
7000
7000
7000
7000
F000
F000
F000
F000
F000
F000
F000
7000
7000
7000
7800
3800
3800
1800
1C00
0C00
0600
0200
0100
00C0
0020
ENDCHAR

STARTCHAR parenright
ENCODING 41
SWIDTH 333 0
DWIDTH 13 0
BBX 11 35 0 -8
BITMAP
C000
2000
1000
0C00
0400
0600
0300
0300
0380
0380
01C0
01C0
01C0
01E0
01E0
01E0
01E0
01E0
01E0
01E0
01E0
01C0
01C0
01C0
01C0
0380
0380
0300
0700
0600
0C00
0800
1000
6000
8000
ENDCHAR

STARTCHAR asterisk
ENCODING 42
SWIDTH 500 0
DWIDTH 19 0
BBX 13 15 3 12
BITMAP
0700
0700
0700
E338
F278
FAF8
1EC0
0700
3EE0
FA78
F278
E718
0700
0700
0700
ENDCHAR

STARTCHAR plus
ENCODING 43
SWIDTH 667 0
DWIDTH 25 0
BBX 20 20 3 0
BITMAP
006000
006000
006000
006000
006000
006000
006000
006000
006000
FFFFF0
FFFFF0
006000
006000
006000
006000
006000
006000
006000
006000
006000
ENDCHAR

STARTCHAR comma
ENCODING 44
SWIDTH 271 0
DWIDTH 10 0
BBX 5 10 3 -6
BITMAP
F0
F8
F8
F8
08
08
10
30
60
80
ENDCHAR

STARTCHAR minus
ENCODING 45
SWIDTH 667 0
DWIDTH 25 0
BBX 20 2 3 9
BITMAP
FFFFF0
FFFFF0
ENDCHAR

STARTCHAR period
ENCODING 46
SWIDTH 271 0
DWIDTH 10 0
BBX 4 4 3 0
BITMAP
F0
F0
F0
70
ENDCHAR

STARTCHAR slash
ENCODING 47
SWIDTH 281 0
DWIDTH 11 0
BBX 16 28 -3 -1
BITMAP
0003
0007
0006
000E
000C
001C
0018
0038
0030
0070
0060
00E0
00C0
01C0
0180
0380
0300
0700
0600
0E00
0C00
1C00
1800
3800
3000
7000
6000
E000
ENDCHAR

STARTCHAR zero
ENCODING 48
SWIDTH 500 0
DWIDTH 19 0
BBX 17 27 1 0
BITMAP
03E000
0E3000
1C1C00
180C00
380E00
380E00
700700
700700
700700
700780
F00780
F00780
F00780
F00780
F00780
F00780
F00780
700780
700700
700700
700700
380E00
380E00
180C00
0C1800
063000
03E000
ENDCHAR

STARTCHAR one
ENCODING 49
SWIDTH 500 0
DWIDTH 19 0
BBX 10 27 4 0
BITMAP
0200
0E00
7E00
9E00
0E00
0E00
0E00
0E00
0E00
0E00
0E00
0E00
0E00
0E00
0E00
0E00
0E00
0E00
0E00
0E00
0E00
0E00
0E00
0E00
0E00
1F00
7FC0
ENDCHAR

STARTCHAR two
ENCODING 50
SWIDTH 500 0
DWIDTH 19 0
BBX 17 27 1 0
BITMAP
07E000
1FF000
3FF800
307C00
603E00
401E00
401E00
000E00
000E00
000E00
000C00
001C00
001C00
001800
003000
002000
006000
00C000
018000
010000
020000
040000
080080
100100
3FFF00
7FFE00
FFFE00
ENDCHAR

STARTCHAR three
ENCODING 51
SWIDTH 500 0
DWIDTH 19 0
BBX 14 27 2 0
BITMAP
0780
1FE0
3FF0
60F8
4078
8038
0038
0038
0030
0060
00C0
01E0
07F0
0FF8
00FC
007C
003C
001C
001C
001C
0018
0018
0018
C030
F060
FF80
7C00
ENDCHAR

STARTCHAR four
ENCODING 52
SWIDTH 500 0
DWIDTH 19 0
BBX 18 27 0 0
BITMAP
000C00
001C00
003C00
003C00
006C00
00DC00
009C00
019C00
031C00
061C00
041C00
0C1C00
181C00
101C00
301C00
601C00
C01C00
FFFFC0
FFFFC0
FFFFC0
001C00
001C00
001C00
001C00
001C00
001C00
001C00
ENDCHAR

STARTCHAR five
ENCODING 53
SWIDTH 500 0
DWIDTH 19 0
BBX 15 27 2 0
BITMAP
07FE
07FC
0FF8
0800
1800
1000
3000
3E00
7F80
7FC0
0FF0
01F0
0078
003C
001C
001C
001C
000C
000C
000C
000C
0018
0010
E030
F0E0
FF80
3E00
ENDCHAR

STARTCHAR six
ENCODING 54
SWIDTH 500 0
DWIDTH 19 0
BBX 16 27 1 0
BITMAP
001F
0078
01E0
0380
0700
0E00
1E00
1C00
3C00
3800
79F0
77FC
7C3E
F01E
F00F
F00F
F007
F007
F007
7007
7007
7806
3806
380C
1C0C
0E38
03E0
ENDCHAR

STARTCHAR seven
ENCODING 55
SWIDTH 500 0
DWIDTH 19 0
BBX 16 27 2 0
BITMAP
3FFF
7FFE
7FF6
600C
C00C
800C
001C
0018
0018
0018
0030
0030
0030
0060
0060
0060
00C0
00C0
00C0
01C0
0180
0180
0380
0300
0300
0700
0600
ENDCHAR

STARTCHAR eight
ENCODING 56
SWIDTH 500 0
DWIDTH 19 0
BBX 15 27 2 0
BITMAP
0FC0
3870
7038
6018
E01C
E01C
E01C
F018
7038
7830
3E60
1F80
0F80
07C0
0DE0
18F0
3078
603C
E01C
E00E
E00E
E00E
E00C
700C
3818
1C30
07E0
ENDCHAR

STARTCHAR nine
ENCODING 57
SWIDTH 500 0
DWIDTH 19 0
BBX 16 27 2 0
BITMAP
07C0
1C70
3038
301C
701C
600E
E00E
E00F
E00F
E00F
F00F
F00F
F00F
780F
3C3E
1FEE
0F9E
001C
003C
0038
0078
0070
00E0
01C0
0380
0E00
F800
ENDCHAR

STARTCHAR colon
ENCODING 58
SWIDTH 271 0
DWIDTH 10 0
BBX 4 19 3 0
BITMAP
F0
F0
F0
F0
00
00
00
00
00
00
00
00
00
00
00
F0
F0
F0
70
ENDCHAR

STARTCHAR semicolon
ENCODING 59
SWIDTH 271 0
DWIDTH 10 0
BBX 5 25 3 -6
BITMAP
F0
F0
F0
F0
00
00
00
00
00
00
00
00
00
00
00
F0
F8
F8
F8
08
08
10
30
60
80
ENDCHAR

STARTCHAR less
ENCODING 60
SWIDTH 668 0
DWIDTH 25 0
BBX 20 19 3 1
BITMAP
000010
000070
0001F0
000FE0
003F00
00FC00
07E000
1F8000
FC0000
E00000
F00000
7E0000
1F8000
07F000
00FC00
003F00
0007E0
0001F0
000070
ENDCHAR

STARTCHAR equal
ENCODING 61
SWIDTH 667 0
DWIDTH 25 0
BBX 20 11 3 5
BITMAP
FFFFF0
FFFFF0
000000
000000
000000
000000
000000
000000
000000
FFFFF0
FFFFF0
ENDCHAR

STARTCHAR greater
ENCODING 62
SWIDTH 667 0
DWIDTH 25 0
BBX 20 19 3 1
BITMAP
800000
C00000
F80000
7E0000
1F8000
03F000
00FC00
001F80
0007E0
000070
0001F0
0007E0
003F00
00FC00
07F000
1F8000
FE0000
F00000
C00000
ENDCHAR

STARTCHAR question
ENCODING 63
SWIDTH 385 0
DWIDTH 15 0
BBX 12 27 1 0
BITMAP
1F80
31C0
40E0
C0F0
C070
E070
E070
E070
0070
0060
00E0
00C0
0180
0180
0300
0200
0200
0200
0200
0200
0000
0000
0000
0600
0F00
0F00
0600
ENDCHAR

STARTCHAR at
ENCODING 64
SWIDTH 917 0
DWIDTH 35 0
BBX 33 35 1 -8
BITMAP
0007FC0000
001C038000
0060004000
01C0003000
0300001800
0600000800
0C00000400
1800000400
1800F38600
30018B0200
30070B0200
600E070200
601C0F0200
60180E0200
C0380E0200
C0300E0200
C0700C0600
C0701C0400
C0E01C0400
C0E03C0C00
C0E0380800
C0E0581800
40E0B83000
60F3386180
607E39C100
203C1F0300
3000000200
1800000600
1800000C00
0C00000800
0600003000
0380006000
00C001C000
003C0F0000
000FF80000
ENDCHAR

STARTCHAR A
ENCODING 65
SWIDTH 771 0
DWIDTH 29 0
BBX 29 28 0 0
BITMAP
00020000
00060000
00070000
000F0000
000F0000
000F8000
001F8000
0017C000
0033C000
0033E000
0063E000
0061E000
00C1F000
00C0F000
0080F800
01807800
01007C00
03FFFC00
03FFFC00
06003E00
06001E00
04001F00
0C000F00
0C000F80
18000780
18000FC0
3C000FC0
FF003FF8
ENDCHAR

STARTCHAR B
ENCODING 66
SWIDTH 667 0
DWIDTH 25 0
BBX 22 27 1 0
BITMAP
FFFF00
1F07C0
0F01E0
0F00F0
0F00F8
0F0078
0F0078
0F0078
0F0078
0F00F8
0F00F0
0F01F0
0F8760
0FFF80
0F07E0
0F01F0
0F00F8
0F007C
0F007C
0F007C
0F007C
0F007C
0F0078
0F00F8
0F01F0
1F87E0
FFFF80
ENDCHAR

STARTCHAR C
ENCODING 67
SWIDTH 719 0
DWIDTH 27 0
BBX 25 27 1 0
BITMAP
003FE100
01F07F00
03C00F00
07000700
0E000300
1E000100
3C000100
3C000100
7C000000
78000000
78000000
F8000000
F8000000
F8000000
F8000000
F8000000
F8000000
78000000
7C000000
3C000000
3E000080
1E000100
0F000300
07800600
03E01800
00FFF000
001F8000
ENDCHAR

STARTCHAR D
ENCODING 68
SWIDTH 823 0
DWIDTH 31 0
BBX 29 27 1 0
BITMAP
FFFFF000
1FC1FC00
0F003F00
0F000F80
0F0007C0
0F0003E0
0F0003E0
0F0001F0
0F0001F0
0F0000F0
0F0000F8
0F0000F8
0F0000F8
0F0000F8
0F0000F8
0F0000F8
0F0000F8
0F0000F0
0F0001F0
0F0001E0
0F0003E0
0F0003C0
0F000780
0F000F00
0F003E00
1F81F800
FFFFE000
ENDCHAR

STARTCHAR E
ENCODING 69
SWIDTH 667 0
DWIDTH 25 0
BBX 23 27 1 0
BITMAP
FFFFF8
1FFFF8
0F0018
0F0008
0F0008
0F0008
0F0000
0F0000
0F0020
0F0020
0F0020
0F0060
0FFFE0
0FFFE0
0F0060
0F0020
0F0020
0F0020
0F0000
0F0000
0F0002
0F0002
0F0006
0F000C
0F001C
1FFFFC
FFFFF8
ENDCHAR

STARTCHAR F
ENCODING 70
SWIDTH 667 0
DWIDTH 25 0
BBX 23 27 1 0
BITMAP
FFFFFE
1F001E
0F0006
0F0006
0F0002
0F0002
0F0000
0F0000
0F0020
0F0020
0F0020
0F0060
0FFFE0
0FFFE0
0F0060
0F0020
0F0020
0F0000
0F0000
0F0000
0F0000
0F0000
0F0000
0F0000
0F0000
1F8000
FFF000
ENDCHAR

STARTCHAR G
ENCODING 71
SWIDTH 823 0
DWIDTH 31 0
BBX 30 27 1 0
BITMAP
003FF080
00F83F80
03E00780
078003C0
0F0001C0
1E0000C0
3E000040
3C000040
7C000000
78000000
78000000
F8000000
F8003FFC
F8000FF0
F80003E0
F80003C0
F80003C0
780003C0
7C0003C0
7C0003C0
3E0003C0
1F0003C0
0F0003C0
07C003C0
03E007C0
00FC3F00
003FFC00
ENDCHAR

STARTCHAR H
ENCODING 72
SWIDTH 823 0
DWIDTH 31 0
BBX 29 27 1 0
BITMAP
FFF07FF8
1F800FC0
0F000780
0F000780
0F000780
0F000780
0F000780
0F000780
0F000780
0F000780
0F000780
0F000780
0FFFFF80
0FFFFF80
0F000780
0F000780
0F000780
0F000780
0F000780
0F000780
0F000780
0F000780
0F000780
0F000780
0F000780
1F800FC0
FFF07FF8
ENDCHAR

STARTCHAR I
ENCODING 73
SWIDTH 385 0
DWIDTH 15 0
BBX 12 27 1 0
BITMAP
FFF0
1F80
0F00
0F00
0F00
0F00
0F00
0F00
0F00
0F00
0F00
0F00
0F00
0F00
0F00
0F00
0F00
0F00
0F00
0F00
0F00
0F00
0F00
0F00
0F00
1F80
FFF0
ENDCHAR

STARTCHAR J
ENCODING 74
SWIDTH 438 0
DWIDTH 17 0
BBX 15 27 1 0
BITMAP
1FFE
03F0
01E0
01E0
01E0
01E0
01E0
01E0
01E0
01E0
01E0
01E0
01E0
01E0
01E0
01E0
01E0
01E0
01E0
01E0
01E0
01E0
61C0
F1C0
F180
FB80
7E00
ENDCHAR

STARTCHAR K
ENCODING 75
SWIDTH 823 0
DWIDTH 31 0
BBX 30 27 1 0
BITMAP
FFF0FFC0
1F803E00
0F003800
0F003000
0F006000
0F00C000
0F01C000
0F038000
0F070000
0F0E0000
0F180000
0F300000
0F780000
0FFC0000
0F7E0000
0F3F0000
0F1F8000
0F0FC000
0F07E000
0F03F000
0F01F800
0F00F800
0F007E00
0F003F00
0F003F80
1F803FC0
FFF0FFFC
ENDCHAR

STARTCHAR L
ENCODING 76
SWIDTH 667 0
DWIDTH 25 0
BBX 23 27 1 0
BITMAP
FFF000
1F8000
0F0000
0F0000
0F0000
0F0000
0F0000
0F0000
0F0000
0F0000
0F0000
0F0000
0F0000
0F0000
0F0000
0F0000
0F0000
0F0000
0F0000
0F0002
0F0002
0F0006
0F0004
0F000C
0F003C
1FFFF8
FFFFF8
ENDCHAR

STARTCHAR M
ENCODING 77
SWIDTH 990 0
DWIDTH 38 0
BBX 35 27 1 0
BITMAP
FF80001FE0
1F80003F00
0FC0003E00
0FC0007E00
0DC0006E00
0DE000DE00
0DE000DE00
0DF000DE00
0CF0019E00
0CF8019E00
0C78031E00
0C7C031E00
0C3C061E00
0C3E061E00
0C3E0C1E00
0C1E0C1E00
0C1F081E00
0C0F181E00
0C0F981E00
0C07B01E00
0C07F01E00
0C03E01E00
0C03E01E00
0C01C01E00
0C01C01E00
1E01803F00
FFC081FFE0
ENDCHAR

STARTCHAR N
ENCODING 78
SWIDTH 823 0
DWIDTH 31 0
BBX 30 27 1 0
BITMAP
FF000FFC
1F8001C0
0F8000C0
07C000C0
07E000C0
07F000C0
06F800C0
06FC00C0
067E00C0
063E00C0
061F00C0
060F80C0
0607C0C0
0603E0C0
0603F0C0
0601F0C0
0600F8C0
06007CC0
06003EC0
06001FC0
06000FC0
06000FC0
060007C0
060003C0
060001C0
0F0000C0
7FE00040
ENDCHAR

STARTCHAR O
ENCODING 79
SWIDTH 771 0
DWIDTH 29 0
BBX 27 27 1 0
BITMAP
007FC000
01F1F000
07803C00
0F001E00
1E000F00
1E000F00
3C000780
7C0007C0
7C0003C0
780003C0
F80003E0
F80003E0
F80003E0
F80003E0
F80003E0
F80003E0
F80003E0
780003C0
7C0007C0
3C0007C0
3C000780
1E000F00
1E000F00
0F001E00
03803C00
01F1F000
007FC000
ENDCHAR

STARTCHAR P
ENCODING 80
SWIDTH 604 0
DWIDTH 23 0
BBX 22 27 1 0
BITMAP
FFFF00
1F87C0
0F01F0
0F00F8
0F00F8
0F007C
0F007C
0F007C
0F007C
0F007C
0F00F8
0F00F8
0F01F0
0FC7E0
0F7F80
0F0000
0F0000
0F0000
0F0000
0F0000
0F0000
0F0000
0F0000
0F0000
0F0000
1F8000
FFF000
ENDCHAR

STARTCHAR Q
ENCODING 81
SWIDTH 771 0
DWIDTH 29 0
BBX 27 34 1 -7
BITMAP
007FC000
01F1F000
07803C00
0F001E00
1E000F00
1E000F00
3C000780
7C0007C0
780003C0
780003C0
F80003E0
F80003E0
F80003E0
F80003E0
F80003E0
F80003E0
780003E0
780003C0
7C0007C0
3C0007C0
3C000780
1E000F00
0F000E00
07001E00
03C07800
01FBF000
003F8000
001FC000
000FC000
0003E000
0001F000
00007C00
00000F00
000001E0
ENDCHAR

STARTCHAR R
ENCODING 82
SWIDTH 771 0
DWIDTH 29 0
BBX 28 27 1 0
BITMAP
FFFF8000
1F87E000
0F01F000
0F00F800
0F007C00
0F007C00
0F007C00
0F007C00
0F007C00
0F00F800
0F00F800
0F01F000
0F0FC000
0FFE0000
0F1F0000
0F0F8000
0F078000
0F07C000
0F03E000
0F01F000
0F00F800
0F007800
0F007C00
0F003E00
0F001F00
1F800F80
FFF00FF0
ENDCHAR

STARTCHAR S
ENCODING 83
SWIDTH 552 0
DWIDTH 21 0
BBX 17 27 2 0
BITMAP
0FE200
3C7E00
701E00
700E00
E00600
E00200
F00200
F00200
F80000
7E0000
7F0000
3FC000
1FF000
07F800
03FC00
00FE00
003F00
001F00
800F80
800780
800780
C00780
C00700
E00700
F00E00
FC3C00
87F000
ENDCHAR

STARTCHAR T
ENCODING 84
SWIDTH 667 0
DWIDTH 25 0
BBX 24 27 1 0
BITMAP
FFFFFF
FFFFFF
E03C07
C03C03
803C01
803C01
003C00
003C00
003C00
003C00
003C00
003C00
003C00
003C00
003C00
003C00
003C00
003C00
003C00
003C00
003C00
003C00
003C00
003C00
003C00
007E00
03FFC0
ENDCHAR

STARTCHAR U
ENCODING 85
SWIDTH 823 0
DWIDTH 31 0
BBX 29 27 1 0
BITMAP
FFF01FF8
1F8003C0
0F000180
0F000180
0F000180
0F000180
0F000180
0F000180
0F000180
0F000180
0F000180
0F000180
0F000180
0F000180
0F000180
0F000180
0F000180
0F000180
0F000180
0F000180
0F000100
07800300
07800300
03C00600
01F01C00
00FFF000
001FC000
ENDCHAR

STARTCHAR V
ENCODING 86
SWIDTH 719 0
DWIDTH 27 0
BBX 27 27 0 0
BITMAP
FFF01FE0
1F800780
0F800300
0F800300
07800600
07C00600
03C00C00
03C00C00
03E00800
01E01800
01F01800
00F01000
00F03000
00F83000
00786000
007C6000
003C4000
003CC000
003EC000
001F8000
001F8000
000F8000
000F0000
000F0000
00060000
00060000
00020000
ENDCHAR

STARTCHAR W
ENCODING 87
SWIDTH 990 0
DWIDTH 38 0
BBX 37 27 1 0
BITMAP
FFC7FE07F8
3F01F800E0
1E01F000C0
1F00F000C0
1F00F80080
0F00780180
0F80780180
07807C0300
07807C0300
07C07E0300
03C0DE0600
03C0DE0600
03E0DF0600
01E18F0C00
01E18F0C00
00F10F8800
00F3079800
00FB07D800
007A03D000
007E03F000
007E03F000
003C01E000
003C01E000
003C01E000
001800C000
001800C000
0008004000
ENDCHAR

STARTCHAR X
ENCODING 88
SWIDTH 771 0
DWIDTH 29 0
BBX 28 27 1 0
BITMAP
FFF03FE0
3F800700
1F800E00
0FC00C00
07C01800
03E03800
03F03000
01F06000
00F8C000
007D8000
007D8000
003E0000
001F0000
000F8000
001F8000
0037C000
0033E000
0063E000
00C1F000
0180F800
0300F800
03007C00
06003E00
0C003F00
1C001F00
3C003F80
FF00FFF0
ENDCHAR

STARTCHAR Y
ENCODING 89
SWIDTH 771 0
DWIDTH 29 0
BBX 28 27 1 0
BITMAP
FFE01FF0
3F8003C0
1F800300
0F800300
07800600
07C00C00
03E00C00
01E01800
01F03000
00F83000
00786000
007C4000
003EC000
001F8000
001F8000
000F0000
000F0000
000F0000
000F0000
000F0000
000F0000
000F0000
000F0000
000F0000
000F0000
001F8000
00FFF000
ENDCHAR

STARTCHAR Z
ENCODING 90
SWIDTH 667 0
DWIDTH 25 0
BBX 24 27 1 0
BITMAP
1FFFFE
3FFFFC
3800FC
3000F8
2001F0
2003F0
2003E0
0007C0
000F80
000F80
001F00
003E00
007E00
007C00
00F800
01F000
01F000
03E000
07C000
0FC000
0F8001
1F0002
3E0002
3E0006
7C000E
FFFFFE
FFFFFC
ENDCHAR

STARTCHAR bracketleft
ENCODING 91
SWIDTH 271 0
DWIDTH 10 0
BBX 8 35 2 -8
BITMAP
FF
FF
E0
E0
E0
E0
E0
E0
E0
E0
E0
E0
E0
E0
E0
E0
E0
E0
E0
E0
E0
E0
E0
E0
E0
E0
E0
E0
E0
E0
E0
E0
E0
FF
FF
ENDCHAR

STARTCHAR backslash
ENCODING 92
SWIDTH 281 0
DWIDTH 11 0
BBX 16 28 -3 -1
BITMAP
E000
6000
7000
3000
3800
1800
1C00
0C00
0E00
0600
0700
0300
0380
0180
01C0
00C0
00E0
0060
0070
0030
0038
0018
001C
000C
000E
0006
0007
0003
ENDCHAR

STARTCHAR bracketright
ENCODING 93
SWIDTH 271 0
DWIDTH 10 0
BBX 7 35 1 -8
BITMAP
FE
FE
0E
0E
0E
0E
0E
0E
0E
0E
0E
0E
0E
0E
0E
0E
0E
0E
0E
0E
0E
0E
0E
0E
0E
0E
0E
0E
0E
0E
0E
0E
0E
FE
FE
ENDCHAR

STARTCHAR asciicircum
ENCODING 94
SWIDTH 469 0
DWIDTH 18 0
BBX 16 14 1 12
BITMAP
0180
0380
03C0
07E0
0760
0E70
0E70
1C38
1838
381C
700C
700E
E007
E007
ENDCHAR

STARTCHAR underscore
ENCODING 95
SWIDTH 500 0
DWIDTH 19 0
BBX 19 2 0 -5
BITMAP
FFFFE0
FFFFE0
ENDCHAR

STARTCHAR quoteleft
ENCODING 96
SWIDTH 271 0
DWIDTH 10 0
BBX 5 10 3 17
BITMAP
08
30
60
C0
80
80
F8
F8
F8
78
ENDCHAR

STARTCHAR a
ENCODING 97
SWIDTH 500 0
DWIDTH 19 0
BBX 17 19 2 0
BITMAP
0FE000
187000
303800
703800
703800
703800
003800
00F800
03B800
0C3800
383800
703800
E03800
E03800
E03800
F07880
F8BD00
7F3F00
3C1C00
ENDCHAR

STARTCHAR b
ENCODING 98
SWIDTH 552 0
DWIDTH 21 0
BBX 19 28 1 0
BITMAP
0C0000
3C0000
FC0000
1C0000
1C0000
1C0000
1C0000
1C0000
1C0000
1C3C00
1CFF00
1DFF80
1F07C0
1E03C0
1C01E0
1C01E0
1C00E0
1C00E0
1C00E0
1C00E0
1C00E0
1C00E0
1C01C0
1C01C0
1C0380
1E0700
0F8E00
03F800
ENDCHAR

STARTCHAR c
ENCODING 99
SWIDTH 438 0
DWIDTH 17 0
BBX 15 19 1 0
BITMAP
07F0
0C38
181C
301E
701E
600C
E000
E000
E000
E000
E000
F002
F002
7802
7804
3E1C
3FF8
1FF0
07C0
ENDCHAR

STARTCHAR d
ENCODING 100
SWIDTH 552 0
DWIDTH 21 0
BBX 19 28 1 0
BITMAP
000300
001F00
002F00
000700
000700
000700
000700
000700
000700
03F700
0E3F00
180F00
380F00
700700
700700
F00700
E00700
E00700
E00700
E00700
F00700
F00700
F00700
780700
7C0700
3F1BE0
1FF780
07C400
ENDCHAR

STARTCHAR e
ENCODING 101
SWIDTH 438 0
DWIDTH 17 0
BBX 15 19 1 0
BITMAP
07E0
18F0
3038
203C
601C
601C
FFFE
E000
E000
E000
E000
E000
F002
7804
780C
3E18
3FF8
1FF0
07C0
ENDCHAR

STARTCHAR f
ENCODING 102
SWIDTH 333 0
DWIDTH 13 0
BBX 15 28 1 0
BITMAP
01F8
063C
0C1E
0C0E
1C00
1C00
1C00
1C00
1C00
7FC0
1C00
1C00
1C00
1C00
1C00
1C00
1C00
1C00
1C00
1C00
1C00
1C00
1C00
1C00
1C00
1C00
3E00
FF80
ENDCHAR

STARTCHAR g
ENCODING 103
SWIDTH 500 0
DWIDTH 19 0
BBX 17 27 1 -8
BITMAP
03F000
0E7F80
1C1F80
181C00
381E00
380E00
380E00
380E00
3C0E00
3C0C00
1E1C00
073800
0FE000
180000
100000
380000
3FFC00
3FFF00
0FFF80
100180
200080
600080
E00100
F00300
7E0E00
3FFC00
0FE000
ENDCHAR

STARTCHAR h
ENCODING 104
SWIDTH 552 0
DWIDTH 21 0
BBX 20 28 1 0
BITMAP
1C0000
7C0000
BC0000
1C0000
1C0000
1C0000
1C0000
1C0000
1C0000
1C3E00
1CFF00
1D8F00
1F0780
1C0380
1C0380
1C0380
1C0380
1C0380
1C0380
1C0380
1C0380
1C0380
1C0380
1C0380
1C0380
1C0380
3E07C0
FF9FF0
ENDCHAR

STARTCHAR i
ENCODING 105
SWIDTH 271 0
DWIDTH 10 0
BBX 9 28 1 0
BITMAP
1800
3C00
3C00
1800
0000
0000
0000
0000
0000
0C00
3C00
FC00
1C00
1C00
1C00
1C00
1C00
1C00
1C00
1C00
1C00
1C00
1C00
1C00
1C00
1C00
3E00
FF80
ENDCHAR

STARTCHAR j
ENCODING 106
SWIDTH 271 0
DWIDTH 10 0
BBX 10 36 -3 -8
BITMAP
0180
03C0
03C0
0180
0000
0000
0000
0000
0000
00C0
07C0
0FC0
01C0
01C0
01C0
01C0
01C0
01C0
01C0
01C0
01C0
01C0
01C0
01C0
01C0
01C0
01C0
01C0
01C0
01C0
01C0
0180
0180
E180
FB00
7C00
ENDCHAR

STARTCHAR k
ENCODING 107
SWIDTH 552 0
DWIDTH 21 0
BBX 19 29 1 0
BITMAP
040000
1C0000
FC0000
3C0000
1C0000
1C0000
1C0000
1C0000
1C0000
1C0000
1C1FE0
1C0E00
1C0C00
1C1800
1C3000
1C6000
1CC000
1D8000
1FC000
1DE000
1CE000
1CF000
1C7800
1C3C00
1C3C00
1C1E00
1C0F00
3E0F80
FF9FE0
ENDCHAR

STARTCHAR l
ENCODING 108
SWIDTH 271 0
DWIDTH 10 0
BBX 9 27 1 0
BITMAP
1C00
7C00
BC00
1C00
1C00
1C00
1C00
1C00
1C00
1C00
1C00
1C00
1C00
1C00
1C00
1C00
1C00
1C00
1C00
1C00
1C00
1C00
1C00
1C00
1C00
3E00
FF80
ENDCHAR

STARTCHAR m
ENCODING 109
SWIDTH 823 0
DWIDTH 31 0
BBX 31 19 0 0
BITMAP
0C3E0FC0
7CFF1FE0
FD8F31E0
1E07C0F0
1C038070
1C038070
1C038070
1C038070
1C038070
1C038070
1C038070
1C038070
1C038070
1C038070
1C038070
1C038070
1C038070
3E07C0F8
FF9FF3FE
ENDCHAR

STARTCHAR n
ENCODING 110
SWIDTH 552 0
DWIDTH 21 0
BBX 20 19 1 0
BITMAP
0C3E00
7CFF00
BD8F00
1F0780
1C0380
1C0380
1C0380
1C0380
1C0380
1C0380
1C0380
1C0380
1C0380
1C0380
1C0380
1C0380
1C0380
3E07C0
FF9FF0
ENDCHAR

STARTCHAR o
ENCODING 111
SWIDTH 552 0
DWIDTH 21 0
BBX 17 19 2 0
BITMAP
03F000
0C3C00
181E00
300F00
700700
600780
E00780
E00380
E00380
E00380
E00380
F00380
F00380
700700
780700
380600
3C0C00
0F3800
07E000
ENDCHAR

STARTCHAR p
ENCODING 112
SWIDTH 552 0
DWIDTH 21 0
BBX 19 27 1 -8
BITMAP
0C3C00
3CFF00
FDFF80
1D07C0
1E03C0
1C01E0
1C01E0
1C00E0
1C00E0
1C00E0
1C00E0
1C00E0
1C00E0
1C01C0
1C01C0
1E0180
1E0300
1D8E00
1CF800
1C0000
1C0000
1C0000
1C0000
1C0000
1C0000
3E0000
FF8000
ENDCHAR

STARTCHAR q
ENCODING 113
SWIDTH 552 0
DWIDTH 21 0
BBX 19 27 2 -8
BITMAP
03F100
0E1F00
180F00
380700
700700
700700
E00700
E00700
E00700
E00700
E00700
F00700
F00700
F00700
780700
7E1B00
3FF700
1FE700
078700
000700
000700
000700
000700
000700
000700
000F80
003FE0
ENDCHAR

STARTCHAR r
ENCODING 114
SWIDTH 385 0
DWIDTH 15 0
BBX 13 19 1 0
BITMAP
0470
3CF8
FDF8
1E38
1E00
1C00
1C00
1C00
1C00
1C00
1C00
1C00
1C00
1C00
1C00
1C00
1C00
3E00
FF80
ENDCHAR

STARTCHAR s
ENCODING 115
SWIDTH 385 0
DWIDTH 15 0
BBX 12 19 2 0
BITMAP
1F60
60E0
4060
C060
C020
E000
F800
7C00
7F00
1FC0
07E0
03E0
00F0
8070
8070
C070
C060
F1C0
9F00
ENDCHAR

STARTCHAR t
ENCODING 116
SWIDTH 333 0
DWIDTH 13 0
BBX 11 25 1 0
BITMAP
0400
0400
0400
0C00
1C00
3C00
FFC0
1C00
1C00
1C00
1C00
1C00
1C00
1C00
1C00
1C00
1C00
1C00
1C00
1C00
1C00
1C20
1E60
0FC0
0780
ENDCHAR

STARTCHAR u
ENCODING 117
SWIDTH 552 0
DWIDTH 21 0
BBX 20 19 1 0
BITMAP
FC1F80
3C0780
1C0380
1C0380
1C0380
1C0380
1C0380
1C0380
1C0380
1C0380
1C0380
1C0380
1C0380
1C0380
1C0380
1E0D80
0F3BD0
0FF3E0
07C300
ENDCHAR

STARTCHAR v
ENCODING 118
SWIDTH 500 0
DWIDTH 19 0
BBX 18 19 0 0
BITMAP
FF07C0
3C0180
1C0100
1C0300
1E0200
0E0200
0E0600
070400
070C00
078C00
038800
039800
01D000
01D000
01F000
00E000
00E000
004000
004000
ENDCHAR

STARTCHAR w
ENCODING 119
SWIDTH 719 0
DWIDTH 27 0
BBX 26 19 1 0
BITMAP
FE7F87C0
7C1E0180
380E0100
3C0E0100
1C0F0300
1C070200
0E0F0200
0E0B8600
0E0B8400
071B8C00
0711C800
0731C800
03A1F800
03E0F000
03C0F000
01C0F000
01C06000
01806000
00802000
ENDCHAR

STARTCHAR x
ENCODING 120
SWIDTH 500 0
DWIDTH 19 0
BBX 18 19 1 0
BITMAP
FF3F00
3E1C00
1E1800
0E1000
0F3000
07A000
03C000
03C000
01C000
01E000
03F000
027000
067800
043800
0C3C00
181E00
101E00
301F00
FC3FC0
ENDCHAR

STARTCHAR y
ENCODING 121
SWIDTH 500 0
DWIDTH 19 0
BBX 18 27 0 -8
BITMAP
FF07C0
3C0180
3C0100
1C0300
1E0300
0E0200
0F0600
070400
070400
038C00
038800
03C800
01D800
01F000
00F000
00F000
006000
006000
006000
004000
00C000
008000
018000
338000
7F0000
7E0000
3C0000
ENDCHAR

STARTCHAR z
ENCODING 122
SWIDTH 438 0
DWIDTH 17 0
BBX 15 19 1 0
BITMAP
7FFE
601C
403C
4078
4070
00F0
01E0
01C0
03C0
0780
0700
0F00
1E00
1C02
3C02
7802
7006
F00E
FFFE
ENDCHAR

STARTCHAR braceleft
ENCODING 123
SWIDTH 479 0
DWIDTH 18 0
BBX 10 35 5 -8
BITMAP
0040
0180
0200
0400
0C00
1C00
1C00
1C00
1C00
1E00
0E00
0E00
0E00
0C00
0C00
1800
3000
C000
2000
1800
0C00
0C00
0E00
0E00
0E00
1E00
1E00
1C00
1C00
1C00
0C00
0C00
0600
0300
00C0
ENDCHAR

STARTCHAR bar
ENCODING 124
SWIDTH 198 0
DWIDTH 8 0
BBX 2 31 3 -4
BITMAP
C0
C0
C0
C0
C0
C0
C0
C0
C0
C0
C0
C0
C0
C0
C0
C0
C0
C0
C0
C0
C0
C0
C0
C0
C0
C0
C0
C0
C0
C0
C0
ENDCHAR

STARTCHAR braceright
ENCODING 125
SWIDTH 479 0
DWIDTH 18 0
BBX 10 35 3 -8
BITMAP
8000
6000
1800
0C00
0C00
0E00
0E00
0E00
1E00
1E00
1E00
1C00
1C00
0C00
0C00
0600
0300
00C0
0100
0600
0C00
0C00
1C00
1C00
1C00
1E00
0E00
0E00
0E00
0E00
0C00
0C00
1800
3000
C000
ENDCHAR

STARTCHAR asciitilde
ENCODING 126
SWIDTH 542 0
DWIDTH 21 0
BBX 20 6 0 7
BITMAP
1F0010
3FE010
7FF830
C0FFF0
C03FE0
C007C0
ENDCHAR

STARTCHAR space
ENCODING 160
SWIDTH 250 0
DWIDTH 11 0
BBX 0 0 0 0
BITMAP
ENDCHAR

STARTCHAR quoteleft
ENCODING 161
SWIDTH 271 0
DWIDTH 10 0
BBX 5 10 3 17
BITMAP
08
30
60
C0
80
80
F8
F8
F8
78
ENDCHAR

STARTCHAR quoteright
ENCODING 162
SWIDTH 271 0
DWIDTH 10 0
BBX 5 10 3 17
BITMAP
F0
F8
F8
F8
08
08
10
30
60
80
ENDCHAR

STARTCHAR sterling
ENCODING 163
SWIDTH 500 0
DWIDTH 19 0
BBX 17 27 1 0
BITMAP
00FC00
018E00
030600
060700
060700
0E0000
0E0000
0E0000
0E0000
0E0000
0E0000
0E0000
7FF000
7FF000
0E0000
0E0000
0E0000
0E0000
0E0000
060000
060000
060080
7C0080
CF8180
8BFF00
99FE00
707C00
ENDCHAR

STARTCHAR brokenbar
ENCODING 166
SWIDTH 531 0
DWIDTH 20 0
BBX 2 31 9 -5
BITMAP
C0
C0
C0
C0
C0
C0
C0
C0
C0
C0
C0
C0
C0
00
00
00
00
00
C0
C0
C0
C0
C0
C0
C0
C0
C0
C0
C0
C0
C0
ENDCHAR

STARTCHAR section
ENCODING 167
SWIDTH 385 0
DWIDTH 15 0
BBX 14 34 1 -7
BITMAP
0780
0860
1060
3070
3070
3070
3800
3C00
1E00
0F00
0FC0
13E0
21F0
40F8
4038
C01C
C01C
E00C
E00C
7008
7C08
3E10
1FA0
07C0
03C0
01E0
00F0
0070
3030
7030
3030
3060
18C0
0700
ENDCHAR

STARTCHAR dieresis
ENCODING 168
SWIDTH 333 0
DWIDTH 13 0
BBX 10 4 1 22
BITMAP
6180
F3C0
F3C0
6180
ENDCHAR

STARTCHAR copyright
ENCODING 169
SWIDTH 760 0
DWIDTH 29 0
BBX 27 27 1 0
BITMAP
003FC000
01C07000
03001C00
0C000600
18000300
101F9180
20707080
60C018C0
41801840
43800860
87000020
87000020
87000020
87000020
87000020
87000020
C7800020
43800060
43C00840
61C010C0
20F06080
103F8100
08000300
04000600
03001800
01E0F000
003F8000
ENDCHAR

STARTCHAR guillemotleft
ENCODING 171
SWIDTH 500 0
DWIDTH 19 0
BBX 17 17 1 1
BITMAP
010180
020300
060600
0C0600
1C0C00
181C00
383800
707800
F07000
707800
383800
1C1C00
0C0C00
0E0600
060200
030300
010180
ENDCHAR

STARTCHAR logicalnot
ENCODING 172
SWIDTH 667 0
DWIDTH 25 0
BBX 20 11 3 4
BITMAP
FFFFF0
FFFFF0
000030
000030
000030
000030
000030
000030
000030
000030
000030
ENDCHAR

STARTCHAR hyphen
ENCODING 173
SWIDTH 333 0
DWIDTH 13 0
BBX 9 3 2 7
BITMAP
FF80
FF80
FF80
ENDCHAR

STARTCHAR endash
ENCODING 175
SWIDTH 500 0
DWIDTH 19 0
BBX 19 1 0 8
BITMAP
FFFFE0
ENDCHAR

STARTCHAR degree
ENCODING 176
SWIDTH 396 0
DWIDTH 15 0
BBX 11 11 2 16
BITMAP
1F00
3F80
71C0
E0E0
C060
C060
C060
E0E0
71C0
3F80
1F00
ENDCHAR

STARTCHAR plusminus
ENCODING 177
SWIDTH 667 0
DWIDTH 25 0
BBX 20 26 3 0
BITMAP
006000
006000
006000
006000
006000
006000
006000
006000
006000
FFFFF0
FFFFF0
006000
006000
006000
006000
006000
006000
006000
006000
006000
000000
000000
000000
000000
FFFFF0
FFFFF0
ENDCHAR

STARTCHAR twosuperior
ENCODING 178
SWIDTH 292 0
DWIDTH 11 0
BBX 10 14 1 13
BITMAP
3E00
7F00
4380
8180
0180
0180
0300
0300
0600
0800
1000
2040
7FC0
FF80
ENDCHAR

STARTCHAR threesuperior
ENCODING 179
SWIDTH 292 0
DWIDTH 11 0
BBX 9 14 1 13
BITMAP
3C00
7F00
C700
0300
0300
0400
1E00
0700
0380
0180
0180
0100
E200
7C00
ENDCHAR

STARTCHAR acute
ENCODING 180
SWIDTH 333 0
DWIDTH 13 0
BBX 6 7 4 20
BITMAP
3C
38
38
70
60
40
80
ENDCHAR

STARTCHAR dieresisacute
ENCODING 181
SWIDTH 333 0
DWIDTH 13 0
BBX 12 7 0 20
BITMAP
03C0
0380
0300
6360
F6F0
F4F0
6460
ENDCHAR

STARTCHAR afii9936
ENCODING 182
SWIDTH 771 0
DWIDTH 29 0
BBX 29 28 0 0
BITMAP
00020000
0F860000
0F070000
0E0F0000
0C0F0000
181F8000
101F8000
1017C000
0033C000
0023E000
0061E000
0061E000
00C1F000
00C0F000
0080F800
01807800
01007C00
03FFFC00
03FFFC00
06003E00
06001E00
04001F00
0C000F00
0C000F80
18000780
18000FC0
3C000FC0
FF003FF8
ENDCHAR

STARTCHAR periodcentered
ENCODING 183
SWIDTH 271 0
DWIDTH 10 0
BBX 4 4 3 11
BITMAP
F0
F0
F0
70
ENDCHAR

STARTCHAR afii9937
ENCODING 184
SWIDTH 829 0
DWIDTH 32 0
BBX 30 27 0 0
BITMAP
3DFFFFF0
783FFFF0
701E0030
601E0010
C01E0010
801E0010
801E0000
001E0000
001E0040
001E0040
001E0040
001E00C0
001FFFC0
001FFFC0
001E00C0
001E0040
001E0040
001E0040
001E0000
001E0000
001E0004
001E0004
001E000C
001E0018
001E0038
003FFFF8
01FFFFF0
ENDCHAR

STARTCHAR afii9938
ENCODING 185
SWIDTH 985 0
DWIDTH 37 0
BBX 36 27 0 0
BITMAP
7DFFE0FFF0
783F001F80
701E000F00
601E000F00
C01E000F00
801E000F00
801E000F00
001E000F00
001E000F00
001E000F00
001E000F00
001E000F00
001FFFFF00
001FFFFF00
001E000F00
001E000F00
001E000F00
001E000F00
001E000F00
001E000F00
001E000F00
001E000F00
001E000F00
001E000F00
001E000F00
003F001F80
01FFE0FFF0
ENDCHAR

STARTCHAR afii9939
ENCODING 186
SWIDTH 548 0
DWIDTH 21 0
BBX 20 27 0 0
BITMAP
3EFFF0
381F80
380F00
700F00
600F00
400F00
800F00
000F00
000F00
000F00
000F00
000F00
000F00
000F00
000F00
000F00
000F00
000F00
000F00
000F00
000F00
000F00
000F00
000F00
000F00
001F80
00FFF0
ENDCHAR

STARTCHAR guillemotright
ENCODING 187
SWIDTH 500 0
DWIDTH 19 0
BBX 17 17 1 1
BITMAP
C04000
602000
303000
381800
181C00
1C0C00
0E0E00
0F8700
070780
0F0700
0E0E00
1C1C00
181800
303800
303000
606000
C04000
ENDCHAR

STARTCHAR afii9940
ENCODING 188
SWIDTH 792 0
DWIDTH 30 0
BBX 30 27 -1 0
BITMAP
7C0FF800
783E3E00
70F00780
E1E003C0
C3C001E0
83C001E0
878000F0
0F8000F8
0F800078
0F000078
1F00007C
1F00007C
1F00007C
1F00007C
1F00007C
1F00007C
1F00007C
0F000078
0F8000F8
078000F8
078000F0
03C001E0
03C001E0
01E003C0
00700780
003E3E00
000FF800
ENDCHAR

STARTCHAR onehalf
ENCODING 189
SWIDTH 823 0
DWIDTH 31 0
BBX 28 28 3 -1
BITMAP
10000600
70000C00
B0000800
30001800
30003000
30002000
30006000
3000C000
30008000
30018000
30030000
30020000
30060000
FC0C0F80
00081FC0
001810E0
00302060
00200060
00600060
00C000C0
008000C0
01800180
03000200
02000400
06000810
0C001FF0
08003FE0
18000000
ENDCHAR

STARTCHAR afii9941
ENCODING 190
SWIDTH 948 0
DWIDTH 36 0
BBX 36 27 -1 0
BITMAP
3CFFE01FF0
383F8003C0
701F800300
700F800300
6007800600
4007C00C00
8003E00C00
0001E01800
0001F03000
0000F83000
0000786000
00007C4000
00003EC000
00001F8000
00001F8000
00000F0000
00000F0000
00000F0000
00000F0000
00000F0000
00000F0000
00000F0000
00000F0000
00000F0000
00000F0000
00001F8000
0000FFF000
ENDCHAR

STARTCHAR afii9942
ENCODING 191
SWIDTH 792 0
DWIDTH 30 0
BBX 31 27 -2 0
BITMAP
7C0FFC00
783E1F00
70F807C0
E1F003E0
C3E001F0
83C000F0
87C000F8
07800078
0F80007C
0F80007C
0F80007C
0F80007C
0F80007C
0F80007C
07800078
07800078
07C000F8
03C000F0
01E001E0
00F001C0
00780780
101C0E02
18040806
1FFC0FFE
1FFC0FFE
1FFC0FFE
1FFC0FFE
ENDCHAR

STARTCHAR afii9977
ENCODING 192
SWIDTH 333 0
DWIDTH 13 0
BBX 12 27 0 0
BITMAP
03C0
0380
6360
F370
F6F0
6460
0400
0000
0200
0E00
7E00
1E00
0E00
0E00
0E00
0E00
0E00
0E00
0E00
0E00
0E00
0E00
0E00
0E20
0F40
07C0
0380
ENDCHAR

STARTCHAR afii9793
ENCODING 193
SWIDTH 771 0
DWIDTH 29 0
BBX 29 28 0 0
BITMAP
00020000
00060000
00070000
000F0000
000F0000
000F8000
001F8000
0017C000
0033C000
0033E000
0063E000
0061E000
00C1F000
00C0F000
0080F800
01807800
01007C00
03FFFC00
03FFFC00
06003E00
06001E00
04001F00
0C000F00
0C000F80
18000780
18000FC0
3C000FC0
FF003FF8
ENDCHAR

STARTCHAR afii9794
ENCODING 194
SWIDTH 667 0
DWIDTH 25 0
BBX 22 27 1 0
BITMAP
FFFF00
1F07C0
0F01E0
0F00F0
0F00F8
0F0078
0F0078
0F0078
0F0078
0F00F8
0F00F0
0F01F0
0F8760
0FFF80
0F07E0
0F01F0
0F00F8
0F007C
0F007C
0F007C
0F007C
0F007C
0F0078
0F00F8
0F01F0
1F87E0
FFFF80
ENDCHAR

STARTCHAR afii9796
ENCODING 195
SWIDTH 667 0
DWIDTH 25 0
BBX 23 27 2 0
BITMAP
FFFFFE
1FFFFE
0F000E
0F0006
0F0002
0F0002
0F0000
0F0000
0F0000
0F0000
0F0000
0F0000
0F0000
0F0000
0F0000
0F0000
0F0000
0F0000
0F0000
0F0000
0F0000
0F0000
0F0000
0F0000
0F0000
1F8000
FFF000
ENDCHAR

STARTCHAR afii9797
ENCODING 196
SWIDTH 667 0
DWIDTH 25 0
BBX 23 27 1 0
BITMAP
000800
001800
001C00
003C00
003E00
007E00
007E00
00EF00
00CF00
00CF80
018F80
018780
0307C0
0303C0
0603E0
0603E0
0C01E0
0C01F0
0C00F0
1800F8
1800F8
300078
30007C
60003C
60003E
FFFFFE
FFFFFE
ENDCHAR

STARTCHAR afii9798
ENCODING 197
SWIDTH 667 0
DWIDTH 25 0
BBX 23 27 1 0
BITMAP
FFFFF8
1FFFF8
0F0018
0F0008
0F0008
0F0008
0F0000
0F0000
0F0020
0F0020
0F0020
0F0060
0FFFE0
0FFFE0
0F0060
0F0020
0F0020
0F0020
0F0000
0F0000
0F0002
0F0002
0F0006
0F000C
0F001C
1FFFFC
FFFFF8
ENDCHAR

STARTCHAR afii9801
ENCODING 198
SWIDTH 667 0
DWIDTH 25 0
BBX 24 27 1 0
BITMAP
1FFFFE
3FFFFC
3800FC
3000F8
2001F0
2003F0
2003E0
0007C0
000F80
000F80
001F00
003E00
007E00
007C00
00F800
01F000
01F000
03E000
07C000
0FC000
0F8001
1F0002
3E0002
3E0006
7C000E
FFFFFE
FFFFFC
ENDCHAR

STARTCHAR afii9802
ENCODING 199
SWIDTH 823 0
DWIDTH 31 0
BBX 29 27 1 0
BITMAP
FFF07FF8
1F800FC0
0F000780
0F000780
0F000780
0F000780
0F000780
0F000780
0F000780
0F000780
0F000780
0F000780
0FFFFF80
0FFFFF80
0F000780
0F000780
0F000780
0F000780
0F000780
0F000780
0F000780
0F000780
0F000780
0F000780
0F000780
1F800FC0
FFF07FF8
ENDCHAR

STARTCHAR afii9803
ENCODING 200
SWIDTH 771 0
DWIDTH 29 0
BBX 27 27 1 0
BITMAP
007FC000
01F1F000
07803C00
0F001E00
1E000F00
1E000F00
3C000780
7C0007C0
780003C0
784043C0
F84043E0
F860C3E0
F87FC3E0
F87FC3E0
F87FC3E0
F860C3E0
784043E0
784043C0
7C0003C0
3C0007C0
3C000780
1E000F00
0E000F00
07001E00
03803C00
01F1F000
007FC000
ENDCHAR

STARTCHAR afii9804
ENCODING 201
SWIDTH 385 0
DWIDTH 15 0
BBX 12 27 1 0
BITMAP
FFF0
1F80
0F00
0F00
0F00
0F00
0F00
0F00
0F00
0F00
0F00
0F00
0F00
0F00
0F00
0F00
0F00
0F00
0F00
0F00
0F00
0F00
0F00
0F00
0F00
1F80
FFF0
ENDCHAR

STARTCHAR afii9805
ENCODING 202
SWIDTH 823 0
DWIDTH 31 0
BBX 30 27 1 0
BITMAP
FFF0FFC0
1F803E00
0F003800
0F003000
0F006000
0F00C000
0F01C000
0F038000
0F070000
0F0E0000
0F180000
0F300000
0F780000
0FFC0000
0F7E0000
0F3F0000
0F1F8000
0F0FC000
0F07E000
0F03F000
0F01F800
0F00F800
0F007E00
0F003F00
0F003F80
1F803FC0
FFF0FFFC
ENDCHAR

STARTCHAR afii9806
ENCODING 203
SWIDTH 771 0
DWIDTH 29 0
BBX 28 27 1 0
BITMAP
00040000
000E0000
000E0000
001F0000
001F0000
001F0000
00378000
00378000
0067C000
0063C000
00C3E000
00C3E000
0081E000
0181F000
0180F000
0300F800
03007800
06007C00
06007C00
0C003C00
0C003E00
08001E00
18001F00
18000F00
38000F80
78001F80
FE007FF0
ENDCHAR

STARTCHAR afii9807
ENCODING 204
SWIDTH 990 0
DWIDTH 38 0
BBX 35 27 1 0
BITMAP
FF80001FE0
1F80003F00
0FC0003E00
0FC0007E00
0DC0006E00
0DE000DE00
0DE000DE00
0DF000DE00
0CF0019E00
0CF8019E00
0C78031E00
0C7C031E00
0C3C061E00
0C3E061E00
0C3E0C1E00
0C1E0C1E00
0C1F081E00
0C0F181E00
0C0F981E00
0C07B01E00
0C07F01E00
0C03E01E00
0C03E01E00
0C01C01E00
0C01C01E00
1E01803F00
FFC081FFE0
ENDCHAR

STARTCHAR afii9808
ENCODING 205
SWIDTH 823 0
DWIDTH 31 0
BBX 30 27 1 0
BITMAP
FF000FFC
1F8001C0
0F8000C0
07C000C0
07E000C0
07F000C0
06F800C0
06FC00C0
067E00C0
063E00C0
061F00C0
060F80C0
0607C0C0
0603E0C0
0603F0C0
0601F0C0
0600F8C0
06007CC0
06003EC0
06001FC0
06000FC0
06000FC0
060007C0
060003C0
060001C0
0F0000C0
7FE00040
ENDCHAR

STARTCHAR afii9809
ENCODING 206
SWIDTH 667 0
DWIDTH 25 0
BBX 22 27 2 0
BITMAP
FFFFF8
FFFFF8
FFFFF8
FFFFF8
C00018
800008
800008
000000
000000
080080
080080
0C0080
0FFF80
0FFF80
0FFF80
0C0080
080080
080080
000000
800004
800004
800004
80000C
FFFFFC
FFFFFC
FFFFFC
FFFFFC
ENDCHAR

STARTCHAR afii9810
ENCODING 207
SWIDTH 771 0
DWIDTH 29 0
BBX 27 27 1 0
BITMAP
007FC000
01F1F000
07803C00
0F001E00
1E000F00
1E000F00
3C000780
7C0007C0
7C0003C0
780003C0
F80003E0
F80003E0
F80003E0
F80003E0
F80003E0
F80003E0
F80003E0
780003C0
7C0007C0
3C0007C0
3C000780
1E000F00
1E000F00
0F001E00
03803C00
01F1F000
007FC000
ENDCHAR

STARTCHAR afii9811
ENCODING 208
SWIDTH 823 0
DWIDTH 31 0
BBX 29 27 1 0
BITMAP
FFFFFFF8
1FFFFFC0
0F000780
0F000780
0F000780
0F000780
0F000780
0F000780
0F000780
0F000780
0F000780
0F000780
0F000780
0F000780
0F000780
0F000780
0F000780
0F000780
0F000780
0F000780
0F000780
0F000780
0F000780
0F000780
0F000780
1F800FC0
FFF07FF8
ENDCHAR

STARTCHAR afii9813
ENCODING 209
SWIDTH 604 0
DWIDTH 23 0
BBX 22 27 1 0
BITMAP
FFFF00
1F87C0
0F01F0
0F00F8
0F00F8
0F007C
0F007C
0F007C
0F007C
0F007C
0F00F8
0F00F8
0F01F0
0FC7E0
0F7F80
0F0000
0F0000
0F0000
0F0000
0F0000
0F0000
0F0000
0F0000
0F0000
0F0000
1F8000
FFF000
ENDCHAR

STARTCHAR afii9814
ENCODING 211
SWIDTH 604 0
DWIDTH 23 0
BBX 22 27 0 0
BITMAP
FFFFF0
7FFFF0
3E0030
3E0010
1F0010
0F8008
07C008
03E000
03E000
01F000
00F800
007C00
007C00
003800
003000
006000
00E000
00C000
018000
030004
06000C
0C0008
180038
1FFFF8
3FFFF8
7FFFF8
FFFFF8
ENDCHAR

STARTCHAR afii9816
ENCODING 212
SWIDTH 667 0
DWIDTH 25 0
BBX 24 27 1 0
BITMAP
FFFFFF
FFFFFF
E03C07
C03C03
803C01
803C01
003C00
003C00
003C00
003C00
003C00
003C00
003C00
003C00
003C00
003C00
003C00
003C00
003C00
003C00
003C00
003C00
003C00
003C00
003C00
007E00
03FFC0
ENDCHAR

STARTCHAR afii9817
ENCODING 213
SWIDTH 771 0
DWIDTH 29 0
BBX 28 27 1 0
BITMAP
FFE01FF0
3F8003C0
1F800300
0F800300
07800600
07C00C00
03E00C00
01E01800
01F03000
00F83000
00786000
007C4000
003EC000
001F8000
001F8000
000F0000
000F0000
000F0000
000F0000
000F0000
000F0000
000F0000
000F0000
000F0000
000F0000
001F8000
00FFF000
ENDCHAR

STARTCHAR afii9818
ENCODING 214
SWIDTH 771 0
DWIDTH 29 0
BBX 26 27 2 0
BITMAP
01FFE000
003F0000
001E0000
001E0000
01FFE000
0F1E3C00
1E1E0E00
3C1E0F00
781E0780
781E0780
F01E03C0
F01E03C0
F01E03C0
F01E03C0
F01E03C0
F01E03C0
F01E03C0
781E0780
781E0780
3C1E0F00
1E1E1E00
071E3800
01FFE000
001E0000
001E0000
003F0000
01FFE000
ENDCHAR

STARTCHAR afii9819
ENCODING 215
SWIDTH 771 0
DWIDTH 29 0
BBX 28 27 1 0
BITMAP
FFF03FE0
3F800700
1F800E00
0FC00C00
07C01800
03E03800
03F03000
01F06000
00F8C000
007D8000
007D8000
003E0000
001F0000
000F8000
001F8000
0037C000
0033E000
0063E000
00C1F000
0180F800
0300F800
03007C00
06003E00
0C003F00
1C001F00
3C003F80
FF00FFF0
ENDCHAR

STARTCHAR afii9820
ENCODING 216
SWIDTH 823 0
DWIDTH 31 0
BBX 30 27 1 0
BITMAP
F07FF83C
380FC070
3C0780F0
3C0780F0
3C0780F0
3E0780F0
3E0781F0
3E0781F0
1E0781F0
1E0781E0
1E0781E0
0F0783C0
070783C0
03C79F00
00FFFC00
00078000
00078000
00078000
00078000
00078000
00078000
00078000
00078000
00078000
00078000
000FC000
007FF800
ENDCHAR

STARTCHAR afii9821
ENCODING 217
SWIDTH 771 0
DWIDTH 29 0
BBX 28 27 1 0
BITMAP
007FE000
01F0F800
07C03E00
0F801F00
1F000F80
1E000780
3E0007C0
3C0003C0
7C0003E0
7C0003E0
7C0003E0
7C0003E0
7C0003E0
7C0003E0
3C0003C0
3C0003C0
3E0007C0
1E000780
0F000F00
07800E00
03C03C00
80E07010
C0204030
FFE07FF0
FFE07FF0
FFE07FF0
FFE07FF0
ENDCHAR

STARTCHAR afii9943
ENCODING 218
SWIDTH 385 0
DWIDTH 15 0
BBX 14 34 0 0
BITMAP
7038
F87C
F87C
F87C
7038
0000
0000
7FF8
0FC0
0780
0780
0780
0780
0780
0780
0780
0780
0780
0780
0780
0780
0780
0780
0780
0780
0780
0780
0780
0780
0780
0780
0780
0FC0
7FF8
ENDCHAR

STARTCHAR afii9944
ENCODING 219
SWIDTH 771 0
DWIDTH 29 0
BBX 28 34 1 0
BITMAP
00E07000
01F0F800
01F0F800
01F0F800
00E07000
00000000
00000000
FFF01FF0
1F800380
0F800300
0F800600
07C00600
03C00C00
03E00800
01F01800
00F03000
00F83000
00786000
007C4000
003EC000
001F8000
001F0000
000F0000
000F0000
000F0000
000F0000
000F0000
000F0000
000F0000
000F0000
000F0000
000F0000
001F8000
00FFF000
ENDCHAR

STARTCHAR afii9968
ENCODING 220
SWIDTH 552 0
DWIDTH 21 0
BBX 19 28 1 0
BITMAP
00F000
00E000
01C000
018000
018000
030000
020000
000000
000000
078380
1C4780
382700
381700
701700
701700
700F00
F00E00
F00E00
F00E00
F00E00
F01E00
F01C00
701C00
701C20
783A20
387A60
1CF3C0
0FC180
ENDCHAR

STARTCHAR afii9969
ENCODING 221
SWIDTH 500 0
DWIDTH 19 0
BBX 15 28 2 0
BITMAP
01F0
01E0
01C0
0380
0300
0200
0400
0000
0000
0FE0
1C78
383C
703C
7018
7000
7000
3800
1C00
07E0
3800
7000
F000
F004
F01C
701E
783C
3C78
0FE0
ENDCHAR

STARTCHAR afii9970
ENCODING 222
SWIDTH 604 0
DWIDTH 23 0
BBX 19 36 1 -8
BITMAP
003E00
003C00
003800
007000
006000
004000
008000
000000
000000
381F00
7E3F80
8EC780
8F83C0
8E01C0
0E01C0
0E01C0
0E01C0
0E01C0
0E01C0
0E01C0
0E01C0
0E01C0
0E01C0
0E01C0
0E01C0
0E01C0
0E01C0
0E01C0
0001C0
0001C0
0001C0
0001C0
0001C0
0001C0
0001C0
0000E0
ENDCHAR

STARTCHAR afii9971
ENCODING 223
SWIDTH 333 0
DWIDTH 13 0
BBX 10 27 1 0
BITMAP
0F00
1E00
1C00
1800
1000
2000
0000
0000
0400
1C00
FC00
3C00
1C00
1C00
1C00
1C00
1C00
1C00
1C00
1C00
1C00
1C00
1C00
1C40
1E40
0F80
0700
ENDCHAR

STARTCHAR afii9978
ENCODING 224
SWIDTH 500 0
DWIDTH 19 0
BBX 16 27 1 0
BITMAP
0070
00E0
18C8
3CDC
3DBC
1918
0100
0000
0000
F030
F80C
F804
7806
7802
3803
3803
3803
3803
3803
3803
3803
3806
3806
1C04
1C0C
0E38
03E0
ENDCHAR

STARTCHAR afii9825
ENCODING 225
SWIDTH 552 0
DWIDTH 21 0
BBX 19 19 1 0
BITMAP
078380
1C4780
382700
381700
701700
701700
700F00
F00E00
F00E00
F00E00
F00E00
F01E00
F01C00
701C00
701C20
783A20
387A60
1CF3C0
0FC180
ENDCHAR

STARTCHAR afii9826
ENCODING 226
SWIDTH 552 0
DWIDTH 21 0
BBX 16 36 3 -8
BITMAP
07F0
1C38
381C
301E
700E
700E
700E
700E
700E
701C
7018
71F0
73F8
701C
701E
700F
700F
700F
7007
7007
7007
7007
7007
7006
700E
781C
7638
73F0
7000
7000
7000
7000
7000
7000
F000
E000
ENDCHAR

STARTCHAR afii9828
ENCODING 227
SWIDTH 500 0
DWIDTH 19 0
BBX 17 26 1 -7
BITMAP
300780
7C0700
FC0F00
860E00
820E00
821C00
031C00
031800
013800
013000
013000
016000
016000
01C000
00C000
008000
008000
018000
018000
01C000
038000
038000
038000
038000
038000
030000
ENDCHAR

STARTCHAR afii9829
ENCODING 228
SWIDTH 500 0
DWIDTH 19 0
BBX 15 28 2 0
BITMAP
0FE0
30F8
207C
203C
2018
1000
1800
0E00
0700
0380
00E0
07F0
0C78
383C
301C
701E
601E
E00E
E00E
E00E
E00E
E00E
E00C
701C
7018
3830
1C60
0FC0
ENDCHAR

STARTCHAR afii9830
ENCODING 229
SWIDTH 500 0
DWIDTH 19 0
BBX 15 19 2 0
BITMAP
0FE0
1C78
383C
703C
7018
7000
7000
3800
1C00
07E0
3800
7000
F000
F004
F01C
701E
783C
3C78
0FE0
ENDCHAR

STARTCHAR afii9833
ENCODING 230
SWIDTH 438 0
DWIDTH 17 0
BBX 14 36 1 -8
BITMAP
0800
3018
6078
60F8
21E0
3F80
0C00
0800
1000
3000
2000
6000
4000
4000
4000
8000
8000
8000
8000
8000
8000
8000
8000
C000
6000
7FF0
3FF8
1FFC
001C
0004
0004
0004
000C
0318
03F8
03E0
ENDCHAR

STARTCHAR afii9834
ENCODING 231
SWIDTH 604 0
DWIDTH 23 0
BBX 19 27 1 -8
BITMAP
381F00
7E3F80
8EC780
8F83C0
8E01C0
0E01C0
0E01C0
0E01C0
0E01C0
0E01C0
0E01C0
0E01C0
0E01C0
0E01C0
0E01C0
0E01C0
0E01C0
0E01C0
0E01C0
0001C0
0001C0
0001C0
0001C0
0001C0
0001C0
0001C0
0000E0
ENDCHAR

STARTCHAR afii9835
ENCODING 232
SWIDTH 500 0
DWIDTH 19 0
BBX 15 27 2 0
BITMAP
07C0
0C70
1830
3818
301C
701C
701E
F00E
E00E
E00E
E00E
E00E
E00E
FFFE
E00E
E00E
E00E
E00E
E00E
E00E
701C
701C
7018
3838
1830
0C60
07C0
ENDCHAR

STARTCHAR afii9836
ENCODING 233
SWIDTH 333 0
DWIDTH 13 0
BBX 10 19 1 0
BITMAP
0400
3C00
FC00
3C00
1C00
1C00
1C00
1C00
1C00
1C00
1C00
1C00
1C00
1C00
1C00
1C40
1E40
0F80
0700
ENDCHAR

STARTCHAR afii9837
ENCODING 234
SWIDTH 552 0
DWIDTH 21 0
BBX 20 19 1 0
BITMAP
1C03C0
FC07E0
3C0DE0
1C1000
1C2000
1C6000
1CC000
1D8000
1FC000
1DC000
1DE000
1CF000
1C7800
1C3800
1C3C00
1C1E00
1C0F00
1C0F80
1C1FF0
ENDCHAR

STARTCHAR afii9838
ENCODING 235
SWIDTH 552 0
DWIDTH 21 0
BBX 19 28 1 0
BITMAP
1C0000
3E0000
7F0000
630000
410000
418000
008000
008000
00C000
00C000
00C000
01C000
01C000
01E000
03A000
03A000
072000
072000
0F3000
0E1000
1E1000
1C1000
3C1820
380820
380C60
700FC0
7007C0
E00380
ENDCHAR

STARTCHAR afii9839
ENCODING 236
SWIDTH 552 0
DWIDTH 21 0
BBX 19 27 2 -8
BITMAP
700E00
700E00
700E00
700E00
700E00
700E00
700E00
700E00
700E00
700E00
700E00
700E00
700E00
700E00
700E20
783620
7CEF40
7FC7C0
6F0380
600000
600000
700000
F00000
F00000
F00000
F00000
600000
ENDCHAR

STARTCHAR afii9840
ENCODING 237
SWIDTH 500 0
DWIDTH 19 0
BBX 17 19 1 -1
BITMAP
F00300
780780
380780
3C0780
1C0300
1C0300
1E0200
0E0600
0E0400
0F0C00
070800
071800
039000
03B000
03C000
01E000
01C000
018000
008000
ENDCHAR

STARTCHAR afii9841
ENCODING 238
SWIDTH 500 0
DWIDTH 19 0
BBX 15 35 2 -8
BITMAP
3000
40E0
43E0
67C0
3F00
1000
1000
2000
2000
2000
30F8
1BF8
0FE0
3000
2000
4000
4000
8000
8000
8000
8000
C000
C000
7000
7FF8
3FFC
1FFE
0006
0002
0002
0002
0006
00CC
01FC
00F0
ENDCHAR

STARTCHAR afii9842
ENCODING 239
SWIDTH 552 0
DWIDTH 21 0
BBX 17 19 2 0
BITMAP
03F000
0C3C00
181E00
300F00
700700
600780
E00780
E00380
E00380
E00380
E00380
F00380
F00380
700700
780700
380600
3C0C00
0F3800
07E000
ENDCHAR

STARTCHAR afii9843
ENCODING 240
SWIDTH 552 0
DWIDTH 21 0
BBX 18 19 1 0
BITMAP
1FFFC0
3FFFC0
7FFFC0
460C00
861C00
861C00
061800
061800
061800
061800
0E1800
0C1800
0C1800
0C1840
1C1C40
3C1CC0
3C1FC0
380F80
380700
ENDCHAR

STARTCHAR afii9845
ENCODING 241
SWIDTH 552 0
DWIDTH 21 0
BBX 17 27 3 -8
BITMAP
03F000
07FC00
183E00
101F00
300F00
700780
700780
700380
700380
700380
700380
700380
700300
700300
700600
780600
780C00
7E3800
73E000
700000
700000
700000
700000
700000
700000
700000
E00000
ENDCHAR

STARTCHAR afii9847
ENCODING 242
SWIDTH 438 0
DWIDTH 17 0
BBX 13 27 2 -8
BITMAP
01E0
07F8
0FF8
1830
2000
6000
4000
4000
8000
8000
8000
8000
8000
C000
C000
7000
7FF0
3FF8
0FF8
0018
0008
0008
0008
0018
0730
07E0
07C0
ENDCHAR

STARTCHAR afii9846
ENCODING 243
SWIDTH 604 0
DWIDTH 23 0
BBX 20 19 2 0
BITMAP
07FFF0
1FFFF0
3FF7F0
7C1800
780C00
F00E00
F00700
E00700
E00380
E00380
E00380
E00380
F00380
700380
780780
380700
1C0E00
0F1C00
03F000
ENDCHAR

STARTCHAR afii9848
ENCODING 244
SWIDTH 438 0
DWIDTH 17 0
BBX 15 19 1 0
BITMAP
1FFE
3FFE
7FFE
6180
4180
8380
0300
0300
0300
0300
0300
0300
0300
0308
0308
0398
03F8
01F0
00E0
ENDCHAR

STARTCHAR afii9849
ENCODING 245
SWIDTH 500 0
DWIDTH 19 0
BBX 16 18 1 0
BITMAP
F030
F80C
F804
7806
7802
3803
3803
3803
3803
3803
3803
3803
3806
3806
1C04
1C0C
0E38
03E0
ENDCHAR

STARTCHAR afii9850
ENCODING 246
SWIDTH 604 0
DWIDTH 23 0
BBX 20 26 1 -7
BITMAP
071F00
1C3F80
3873C0
7861E0
7060E0
7060F0
F06070
F06070
F06070
F06070
F06070
706070
706060
7860E0
3860C0
1C6180
0E6700
03FE00
006000
006000
006000
006000
006000
006000
006000
006000
ENDCHAR

STARTCHAR afii9851
ENCODING 247
SWIDTH 552 0
DWIDTH 21 0
BBX 19 27 1 -8
BITMAP
1C0380
3E0780
7E0700
430F00
430E00
811E00
011C00
01BC00
00B800
00B800
00F000
00F000
00E000
01E000
01C000
03C000
03E000
07A000
072000
0F2000
0E3020
1E3020
1C1040
3C18C0
381FC0
780F80
700700
ENDCHAR

STARTCHAR afii9852
ENCODING 248
SWIDTH 667 0
DWIDTH 25 0
BBX 24 26 1 -7
BITMAP
F8181F
38181C
3C183C
1C183C
1C1838
1C1838
1E1878
1E1878
1E1878
1E1878
0E1878
0E1870
0E1870
071860
0718E0
0399C0
01DB80
007E00
001800
001800
001800
001800
001800
001800
001800
001800
ENDCHAR

STARTCHAR afii9853
ENCODING 249
SWIDTH 667 0
DWIDTH 25 0
BBX 23 18 1 0
BITMAP
0787C0
1C00F0
380078
783838
70381C
F0381C
F0381E
E0381E
E0381E
E0381E
E0381E
E0101E
F0101C
F0101C
70281C
386838
3CC670
0F83E0
ENDCHAR

STARTCHAR afii9975
ENCODING 250
SWIDTH 333 0
DWIDTH 13 0
BBX 11 26 0 0
BITMAP
6180
F3C0
F3C0
6180
0000
0000
0000
0200
0E00
7E00
1E00
0E00
0E00
0E00
0E00
0E00
0E00
0E00
0E00
0E00
0E00
0E00
0E20
0F20
07C0
0380
ENDCHAR

STARTCHAR afii9976
ENCODING 251
SWIDTH 500 0
DWIDTH 19 0
BBX 16 26 1 0
BITMAP
0E18
1E3C
1E3C
0C18
0000
0000
0000
0000
F038
F80C
F804
7806
7802
3803
3803
3803
3803
3803
3803
3803
3802
3806
1C04
1C0C
0E18
03E0
ENDCHAR

STARTCHAR afii9972
ENCODING 252
SWIDTH 552 0
DWIDTH 21 0
BBX 17 28 2 0
BITMAP
00F800
00E000
00E000
01C000
018000
010000
020000
000000
000000
03F000
0C3C00
181E00
300F00
700700
600780
E00780
E00380
E00380
E00380
E00380
F00380
F00380
700700
780700
380600
3C0C00
0F3800
07E000
ENDCHAR

STARTCHAR afii9973
ENCODING 253
SWIDTH 500 0
DWIDTH 19 0
BBX 16 27 1 0
BITMAP
01F0
01C0
01C0
0180
0300
0200
0000
0000
0000
F030
F80C
F804
7806
7802
3803
3803
3803
3803
3803
3803
3803
3806
3806
1C04
1C0C
0E38
03E0
ENDCHAR

STARTCHAR afii9974
ENCODING 254
SWIDTH 667 0
DWIDTH 25 0
BBX 23 27 1 0
BITMAP
001F00
001C00
001800
003800
003000
006000
000000
000000
000000
0787C0
1C00F0
380078
783838
70381C
F0381C
F0381E
E0381E
E0381E
E0381E
E0381E
E0101E
F0101C
F0101C
70281C
386838
3CC670
0F83E0
ENDCHAR
ENDFONT
